<svg xmlns="http://www.w3.org/2000/svg" xmlns:xlink="http://www.w3.org/1999/xlink" width="1805.889" height="1821.98" viewBox="0 0 1805.889 1821.98">
  <defs>
    <linearGradient id="linear-gradient" x1="0.031" y1="0.513" x2="0.549" y2="0.513" gradientUnits="objectBoundingBox">
      <stop offset="0" stop-color="#b66a27"/>
      <stop offset="1" stop-color="#c78b4f"/>
    </linearGradient>
  </defs>
  <g id="image_6_" data-name="image (6)" transform="translate(-212.268 -237.419)">
    <path id="Path_286" data-name="Path 286" d="M791.282,237.419c105.246,61.517,238.776,151.736,271.383,276.259,12.184,46.533,8.684,119.666,8.655,169.977l0,357.8-.185,103.328c-.046,18.466-.94,37.594,1.063,55.9,3.858,35.286,34.689,32.113,61.19,32.274,52.359.32,104.632-.778,156.829-.024l-.438-81.978c-.188-53.716-2.528-100.94,38.445-141.883,60.014-59.97,171.189-60.016,231,.123,45.16,45.413,37.9,101.492,37.871,159.783L1597,1281.156c-61.148-.043-130.752-1.727-191.286.149-13.423.648-28.73-.1-42.3-.453l-.3-48.1q58.95-1.139,117.912-1c19.781,0,43.827-.566,63.3.653l.08-78.511c.034-45.62,4.845-91.777-30.54-126.769-37.965-37.544-106.094-35.949-142.546,2.638a97.96,97.96,0,0,0-23.494,43.2c-6.559,25.588-4.807,67.069-4.776,94.379l.236,113.751-321.59.094.2-492.078L1021.76,662.3c-.043-36.467,2.328-79.542-6.077-114.542-26.807-111.65-131.6-183.571-223.932-239.308-91.594,53.911-195.727,126.191-224.1,234.943-9.327,35.746-6.963,88.756-6.949,127l.046,131.188L560.7,1281l-49.381.181-.287-485.31-.084-138.631c-.024-44.194-2.311-96.839,7.643-139.209,12.563-53.479,47.179-104.8,85.693-143.329C653.842,325.117,729.7,270.587,791.282,237.419Z" transform="translate(420.628 0)" fill="#36271b"/>
    <path id="Path_287" data-name="Path 287" d="M864.487,651.183q58.95-1.139,117.912-1c19.781,0,43.827-.566,63.3.653-8.806.983-17.025.8-25.836.9-37.51.424-75.227-.733-112.71.142q-.314,23.922-.06,47.849c-13.423.648-28.73-.1-42.3-.453Z" transform="translate(919.251 581.573)" fill="#36271b"/>
    <path id="Path_288" data-name="Path 288" d="M748.335,279.1c25.42,8.088,111.922,76.909,133.682,100.976,29.2,32.3,59.746,73.543,69.187,117.481,7.5,34.893,5.575,79.867,5.554,115.843l-.007,136.826c0,156.844,1.561,316.273-.39,472.805-12.054-10.414-25.656-20.909-38.151-30.927-1.255-52.328-.181-108.754-.19-161.477L917.937,731.1,918,624.828c.007-26.21,1.053-66.363-4.2-91.3-18.926-89.867-91.939-143.6-163.279-191.024-6.221,1-15.514,8.491-20.986,12-62.785,40.314-125.75,98-143.744,173.259-7.448,31.154-5.409,70.447-5.383,102.906l.135,116.582-.14,444.656-38.437,30.3c-2.337-41.647-.8-95.868-.824-138.672L541.2,828.93l-.077-185.908c-.058-42.753-2.98-106.328,6.727-146.3C571.527,399.205,665.851,328.465,748.335,279.1Z" transform="translate(462.854 58.743)" fill="#ceaa77"/>
    <path id="Path_289" data-name="Path 289" d="M892.951,543.864l.234,305.457-208.658-.1q-64.039.293-128.075-.277C510.157,973.052,297.4,983.352,235.789,865.457c-38.466-73.61-26.68-143.466,13.134-213.065l11.64,7.007c-22.8,52.629-32.869,113.233-7.7,167.067C285.649,896.6,384.99,913.958,449.545,881.2a117,117,0,0,0,59.549-69.656c7.187-22.408,7.7-48.29,7.069-71.671-1.467-54.689,8.125-96.738-17.883-147,21.858-15.909,46.964-32.518,69.387-48.025,7.081,9.874-3.238,208.412,3.012,239.077,1.113,5.457,3.183,8.758,7.92,11.683,13,8.035,62.736,7.927,78.33,4.219,8.435-2,16.22-6.187,20.521-14.023,5.031-9.17,3.2-150.222,1.462-168.9a159.459,159.459,0,0,0-7.939-36.158q29.737-18.569,59.749-36.683l.024,156.781c0,23.762-1.7,48.827.364,72.458.588,6.725,1.6,17.408,7.315,21.8,4.188,3.222,9.652,4.73,14.8,5.484,9.4,1.373,55.691,1.434,66.081-.132,6.623-1,14.758-4.192,18.155-10.45,7.481-13.794,5.255-151.943,3.477-173.936a157.728,157.728,0,0,0-7.226-35.455Z" transform="translate(0 431.91)" fill="#36271b"/>
    <path id="Path_290" data-name="Path 290" d="M362.846,739.778l21.8.065C433.664,808.757,486.4,882.707,533.806,952.462L679.364,739.93l20.842,0-.055,290.26-25.388-.087c-1.643-80.786-.2-165.5-.294-246.713l.125-20.475L524.484,982.368C473.036,911.784,422.339,835.377,371.462,763.6l-.087,213.41c0,14.165-.128,35.394.2,50.145q-1.023,1.283-2.05,2.564l-4.313.157c-4.513-5.274-2.287-82.1-2.294-95.086Z" transform="translate(211.568 708.035)" fill="#36271b"/>
    <path id="Path_291" data-name="Path 291" d="M704.276,328.752c6.848,1.347,24.3,13.89,30.373,18.449,51.424,38.6,101.147,91.413,104.268,159.2,1.173,25.511.622,51.4.562,76.966l-.015,131.942-.123,281.326c-.029,16.295,2.537,95.006-1.337,106.533-5.33,1.053-2.843,1.272-7.758-.321-1.4-2.046-1.985-2.8-1.93-5.469.848-41.365.463-83,.448-124.4l-.07-309.235c0-153.586,23.8-224.78-121.608-320.39-8.339,2.053-23.649,13.613-30.768,19.034-48.391,36.84-90.442,88.659-92.958,151.9-.891,22.432-.593,44.738-.554,67.2l.2,102.988-.048,285.141c-.01,41.293-.759,83.137.5,124.333.142,4.636-.855,6.2-3.352,9.189-5.009.923-2.759,1.243-7.06-.224-2.154-9.04-1.275-45.868-1.27-57.149l0-112.231-.055-272.079c-.014-48.061-.294-96.109.248-144.168C572.948,431.049,636.692,371.97,704.276,328.752Z" transform="translate(506.446 128.727)" fill="#bc7335"/>
    <path id="Path_292" data-name="Path 292" d="M897.435,737.953a166.012,166.012,0,0,1,48.477,2.207c24.665,4.749,51.494,16.427,68.107,37.661,1.993,2.547,1.159,3.576.489,5.968-6.773,3.667-8.657-1.246-16.849-8.038-25.311-21.841-55.737-28.255-87.108-29.27-33.819-1.094-87.77,18.9-82.007,59.867,9.387,66.734,136.188,58.79,177.439,102.089,14.671,15.4,22.131,27.229,22.511,48.928-.149,66.717-67.16,81.862-119.131,82.332-49.771-3.855-76.824-12.664-112.409-48.126l7.71-9.218c6.749,7.462,13.042,12.734,20.538,19.3,39.153,34.284,137.8,43.49,171.616-3.376a52.723,52.723,0,0,0,9.493-39.661c-12.777-75.224-187.819-52.383-198.78-138.453C800.48,764.794,851.343,742.9,897.435,737.953Z" transform="translate(824.07 704.265)" fill="#36271b"/>
    <path id="Path_293" data-name="Path 293" d="M736.942,739.217c4.217,1.6,5.029,1.024,7.262,5.033,5.212,9.353,10.05,19.829,14.816,29.409l30.968,61.765c32.228,64.23,66.758,130.757,97.582,195.486l-27.3.034L734.439,779.553c-1.583-3.026-.913-2.115-3.8-4.436-6.141,3.231-29.226,52.617-34.291,62.549q-35.241,69.3-69.784,138.949c-5.45,10.927-23.521,55.253-34.411,55.323l-2.1-2.6c1.636-5.366,32.5-65.233,37.563-75.352Q681.446,846.181,736.942,739.217Z" transform="translate(532.45 707.244)" fill="#36271b"/>
    <path id="Path_304" data-name="Path 304" d="M695.12,487.917l3.563,2.918c-2.207,5.443-36.047,27.679-43.774,33.705-2.209,111.547,1.552,224.628.125,336.319-.075,5.843,1.347,15.654-2.128,20.27l-6.091-2.137c-3.855-5.089-2.058-105.051-2.067-121.618l-.026-237.593C660.112,509.089,678.493,495.82,695.12,487.917Z" transform="translate(608.969 353.057)" fill="url(#linear-gradient)"/>
    <path id="Path_307" data-name="Path 307" d="M312.531,913.825l432.055-.537c70.174.08,159.824-2.031,228.717,2.3l-.867,1.2c-37.852-.3-77.142,1.434-115.445,1.484l-454.889-.33c-9.84-.06-86.05.59-90.809-1.585Z" transform="translate(139.568 951.955)" fill="#ceaa77"/>
    <path id="Path_308" data-name="Path 308" d="M732.747,913.424l404.392-.294,124.075.463c17.654.1,51.224-.658,67.4,1.417-8.624,3.262-51.285,2.4-63.416,2.39l-425.752.588q-62.821-.112-125.634-1.2c-11.293-.229-35.99.393-45.924-1.272C670.04,914.7,725.3,913.827,732.747,913.424Z" transform="translate(642.167 952.361)" fill="#ceaa77"/>
    <path id="Path_322" data-name="Path 322" d="M617.908,661.325l8.043,3.486c-31.354,31.484-67.9,65.018-97.714,96.48-4.66-2.838-4.918-2.665-8.235-7.255Q569.287,708.033,617.908,661.325Z" transform="translate(433.725 597.462)" fill="#ceaa77"/>
    <path id="Path_327" data-name="Path 327" d="M699.276,664.5c19.295,18.249,46.3,42.295,64.071,60.905l-4.865,2.886c-.13,1.831.092,2.843-.9,4.429-16.478-14.119-46.43-45.083-62.337-61.231C697.8,666.636,693.464,669.407,699.276,664.5Z" transform="translate(680.718 601.935)" fill="#ceaa77"/>
    <path id="Path_334" data-name="Path 334" d="M591.942,669.051c13.452-1.728,47.273-1.1,62.327-1.125q60.685-.293,121.355,1.154C763.035,672.892,607.23,671.921,591.942,669.051Z" transform="translate(535.12 606.635)" fill="#e7cba9"/>
    <path id="Path_335" data-name="Path 335" d="M577.972,658.621c24.328.065,162.424-3.836,173.5,2.108q-86.345,1.117-172.69-.733Z" transform="translate(515.431 591.964)" fill="#e7cba9"/>
    <path id="Path_336" data-name="Path 336" d="M583.214,653.814c20.444-.07,135.86-3.718,144.7,1.267C710.229,655.479,591.247,658.134,583.214,653.814Z" transform="translate(522.819 584.969)" fill="#e7cba9"/>
    <path id="Path_337" data-name="Path 337" d="M726.883,689.777q16.1,14.117,31.272,29.253-7.431.209-14.871.219c-4.963-5.954-15.317-14.129-22.167-22.157.993-1.585.771-2.6.9-4.429Z" transform="translate(717.182 637.563)" fill="#daba90"/>
    <path id="Path_338" data-name="Path 338" d="M592.558,664.467c10.886-2.508,120.613-2.25,132.039,0C705.5,666.6,611.3,665.864,592.558,664.467Z" transform="translate(535.989 599.372)" fill="#e7cba9"/>
    <path id="Path_339" data-name="Path 339" d="M708.43,682.9c-5.532-4.889-24.251-19.28-22.412-26.5,8.722-.084,19.887,13.1,26.443,19.509C706.649,680.82,710.988,678.049,708.43,682.9Z" transform="translate(667.533 590.523)" fill="#e7cba9"/>
    <path id="Path_340" data-name="Path 340" d="M560.636,674.131c10.56-11.259,17.259-15.854,31.106-21.892-6.843,12.334-12.319,16.974-23.063,25.378Z" transform="translate(490.997 584.656)" fill="#e7cba9"/>
    <path id="Path_341" data-name="Path 341" d="M528.724,699.8c3.318,4.59,3.576,4.416,8.235,7.255-5.956,6.315-12.139,12.31-21.564,10.862l-1.583-2.354C515.436,709.632,523.664,704.1,528.724,699.8Z" transform="translate(425.002 651.695)" fill="#e7cba9"/>
    <path id="Path_342" data-name="Path 342" d="M609.89,674.624c9.233-1.315,58.607-2.756,65.7,1.207C664.314,677.8,620.014,678.718,609.89,674.624Z" transform="translate(560.417 614.266)" fill="#e7cba9"/>
    <path id="Path_344" data-name="Path 344" d="M745.188,701.918c3.783,3.364,8.216,6.175,9.064,10.775-7.635,5.852-19.112-5.236-23.935-10.556Q737.755,702.126,745.188,701.918Z" transform="translate(730.149 654.674)" fill="#e7cba9"/>
    <path id="Path_345" data-name="Path 345" d="M691.322,673.085l1.079-.263,1.19,1.029c5.667-2.59,14.815-2.113,17.945,3.725-4.426,1.65-4.474.573-10.091-.954-1.537-.436-19.487-.506-24.333-1.1C679.323,673.959,687.925,673.482,691.322,673.085Z" transform="translate(655.164 613.003)" fill="#e7cba9"/>
    <path id="Path_346" data-name="Path 346" d="M658.709,652.766c11.519-.08,22.668-.612,33.958,1.725-7.19,1.993-17.577,1.749-25.007,1.328C665.5,654.224,661.552,653.539,658.709,652.766Z" transform="translate(629.223 585.247)" fill="#e7cba9"/>
    <path id="Path_347" data-name="Path 347" d="M678.093,667.4c7.356.614,20.367,1.024,25.142,6.1C692.578,677.131,686.822,673.276,678.093,667.4Z" transform="translate(656.543 606.017)" fill="#daba90"/>
    <text id="INTERNATIONAL_CARE" data-name="INTERNATIONAL CARE" transform="translate(431.268 2039.399)" fill="#36271b" font-size="80" font-family="NightStillComes-Bold, Night Still Comes" font-weight="700" letter-spacing="0.55em"><tspan x="0" y="0">INTERNATIONAL CARE</tspan></text>
  </g>
</svg>
