<svg xmlns="http://www.w3.org/2000/svg">
  <!-- Editorial emblems: one stroke, no ornamental geometry -->
  <symbol id="atelier-market-entry" viewBox="0 0 48 48" fill="none" stroke="currentColor" stroke-width="1.6" stroke-linecap="round" stroke-linejoin="round">
    <circle cx="20" cy="25" r="14"/><path d="M6 25h20M20 11c4 4.6 6 9.3 6 14s-2 9.4-6 14M20 11c-4 4.6-6 9.3-6 14s2 9.4 6 14M30 10h10v10M40 10 27 23"/>
  </symbol>
  <symbol id="atelier-registration" viewBox="0 0 48 48" fill="none" stroke="currentColor" stroke-width="1.6" stroke-linecap="round" stroke-linejoin="round">
    <path d="M11 6h18l8 8v28H11zM29 6v8h8M17 21h14M17 27h10M17 33h7M28 35l3 3 6-7"/>
  </symbol>
  <symbol id="atelier-tenders" viewBox="0 0 48 48" fill="none" stroke="currentColor" stroke-width="1.6" stroke-linecap="round" stroke-linejoin="round">
    <path d="M6 41h36M10 37h28M12 37V21M20 37V21M28 37V21M36 37V21M8 18h32L24 7z"/>
  </symbol>
  <symbol id="atelier-distribution" viewBox="0 0 48 48" fill="none" stroke="currentColor" stroke-width="1.6" stroke-linecap="round" stroke-linejoin="round">
    <path d="M5 7h13v13H5zM30 28h13v13H30zM5 7l6.5 4L18 7M11.5 11v9M30 28l6.5 4 6.5-4M36.5 32v9M11.5 20v8a6 6 0 0 0 6 6H30M26 30l4 4-4 4"/>
  </symbol>
  <symbol id="atelier-sales-growth" viewBox="0 0 48 48" fill="none" stroke="currentColor" stroke-width="1.6" stroke-linecap="round" stroke-linejoin="round">
    <path d="M7 41V8M7 41h35M13 41V31h6v10M23 41V24h6v17M33 41V17h6v24M11 27l10-9 8 3L41 8M35 8h6v6"/>
  </symbol>
  <symbol id="atelier-partnership" viewBox="0 0 48 48" fill="none" stroke="currentColor" stroke-width="1.6" stroke-linecap="round" stroke-linejoin="round">
    <path d="m20 18-4-4a7 7 0 0 0-10 10l6 6a7 7 0 0 0 10 0l3-3M28 30l4 4a7 7 0 0 0 10-10l-6-6a7 7 0 0 0-10 0l-3 3M17 31l14-14"/>
  </symbol>
  <symbol id="atelier-investment" viewBox="0 0 48 48" fill="none" stroke="currentColor" stroke-width="1.6" stroke-linecap="round" stroke-linejoin="round">
    <ellipse cx="14" cy="34" rx="8" ry="3.5"/><path d="M6 34v7c0 2 3.6 3.5 8 3.5s8-1.5 8-3.5v-7M27 35l6-7 5 4 6-9M38 23h6v6M12 27c1-8 6-14 15-17M21 10h6v6"/>
  </symbol>
  <symbol id="atelier-manufacturing" viewBox="0 0 48 48" fill="none" stroke="currentColor" stroke-width="1.6" stroke-linecap="round" stroke-linejoin="round">
    <path d="M5 42V18l10 6v-8l10 6V9h8v33M33 20h9v22H5M11 31h5M22 31h5M11 37h5M22 37h5"/>
  </symbol>
  <symbol id="atelier-facility" viewBox="0 0 48 48" fill="none" stroke="currentColor" stroke-width="1.6" stroke-linecap="round" stroke-linejoin="round">
    <path d="M8 43V9h32v34M4 43h40M18 43V33h12v10M15 17h18M24 12v10M14 27h6M28 27h6"/>
  </symbol>
  <symbol id="atelier-operations" viewBox="0 0 48 48" fill="none" stroke="currentColor" stroke-width="1.6" stroke-linecap="round" stroke-linejoin="round">
    <path d="M8 12h13M29 12h11M8 24h5M21 24h19M8 36h21M37 36h3M21 8v8h8V8zM13 20v8h8v-8zM29 32v8h8v-8z"/>
  </symbol>
  <symbol id="atelier-quality" viewBox="0 0 48 48" fill="none" stroke="currentColor" stroke-width="1.6" stroke-linecap="round" stroke-linejoin="round">
    <path d="m24 5 15 7v11c0 9-5.5 15.5-15 20-9.5-4.5-15-11-15-20V12zM17 24l5 5 10-11"/>
  </symbol>
  <symbol id="atelier-research" viewBox="0 0 48 48" fill="none" stroke="currentColor" stroke-width="1.6" stroke-linecap="round" stroke-linejoin="round">
    <circle cx="20" cy="20" r="13"/><path d="m29.5 29.5 12 12M11 25l7-7 5 4 6-9"/>
  </symbol>
  <symbol id="atelier-localization" viewBox="0 0 48 48" fill="none" stroke="currentColor" stroke-width="1.6" stroke-linecap="round" stroke-linejoin="round">
    <path d="M24 44s14-13 14-27a14 14 0 1 0-28 0c0 14 14 27 14 27zM17 22v-8l7-4 7 4v8M15 22h18M21 22v-5h6v5"/>
  </symbol>
  <symbol id="atelier-multi-market" viewBox="0 0 48 48" fill="none" stroke="currentColor" stroke-width="1.6" stroke-linecap="round" stroke-linejoin="round">
    <path d="M20 20h8v8h-8zM5 5h7v7H5zM36 5h7v7h-7zM5 36h7v7H5zM36 36h7v7h-7zM12 12l8 8M36 12l-8 8M12 36l8-8M36 36l-8-8"/>
  </symbol>
  <symbol id="atelier-contact" viewBox="0 0 48 48" fill="none" stroke="currentColor" stroke-width="1.6" stroke-linecap="round" stroke-linejoin="round">
    <path d="M8 8h32v25H21L9 41v-8H8a6 6 0 0 1-6-6V14a6 6 0 0 1 6-6zM14 18h20M14 24h14"/>
  </symbol>
  <symbol id="atelier-launch" viewBox="0 0 48 48" fill="none" stroke="currentColor" stroke-width="1.6" stroke-linecap="round" stroke-linejoin="round">
    <path d="M8 37h32M15 32V19l9-9 9 9v13M15 22h18M24 32V10M19 15l5-5 5 5M13 42h22"/>
  </symbol>

  <!-- Utility glyphs: single 1.5px stroke -->
  <symbol id="atelier-response" viewBox="0 0 24 24" fill="none" stroke="currentColor" stroke-width="1.5" stroke-linecap="round" stroke-linejoin="round">
    <circle cx="12" cy="12" r="8.5"/><path d="M12 7v5l3.5 2"/>
  </symbol>
  <symbol id="atelier-secure" viewBox="0 0 24 24" fill="none" stroke="currentColor" stroke-width="1.5" stroke-linecap="round" stroke-linejoin="round">
    <rect x="4.5" y="10" width="15" height="11" rx="1.5"/><path d="M8 10V7.5a4 4 0 0 1 8 0V10M12 14v3"/>
  </symbol>
  <symbol id="atelier-email" viewBox="0 0 24 24" fill="none" stroke="currentColor" stroke-width="1.5" stroke-linecap="round" stroke-linejoin="round">
    <rect x="3" y="5" width="18" height="14" rx="1.5"/><path d="m4 7 8 6 8-6"/>
  </symbol>
  <symbol id="atelier-arrow-right" viewBox="0 0 24 24" fill="none" stroke="currentColor" stroke-width="1.5" stroke-linecap="round" stroke-linejoin="round">
    <path d="M4 12h16M14 6l6 6-6 6"/>
  </symbol>
  <symbol id="atelier-arrow-up-right" viewBox="0 0 24 24" fill="none" stroke="currentColor" stroke-width="1.5" stroke-linecap="round" stroke-linejoin="round">
    <path d="M5 19 19 5M9 5h10v10"/>
  </symbol>
  <symbol id="atelier-chevron-down" viewBox="0 0 24 24" fill="none" stroke="currentColor" stroke-width="1.5" stroke-linecap="round" stroke-linejoin="round">
    <path d="m5 8 7 8 7-8"/>
  </symbol>
  <symbol id="atelier-plus" viewBox="0 0 24 24" fill="none" stroke="currentColor" stroke-width="1.5" stroke-linecap="round">
    <path d="M12 4v16M4 12h16"/>
  </symbol>
  <symbol id="atelier-close" viewBox="0 0 24 24" fill="none" stroke="currentColor" stroke-width="1.5" stroke-linecap="round">
    <path d="m5 5 14 14M19 5 5 19"/>
  </symbol>
</svg>
