<svg xmlns="http://www.w3.org/2000/svg">
  <symbol id="ph-duotone-arrow-square-out" viewBox="0 0 256 256"><path d="M184,80V208a8,8,0,0,1-8,8H48a8,8,0,0,1-8-8V80a8,8,0,0,1,8-8H176A8,8,0,0,1,184,80Z" opacity="0.2"/><path d="M224,104a8,8,0,0,1-16,0V59.32l-66.33,66.34a8,8,0,0,1-11.32-11.32L196.68,48H152a8,8,0,0,1,0-16h64a8,8,0,0,1,8,8Zm-40,24a8,8,0,0,0-8,8v72H48V80h72a8,8,0,0,0,0-16H48A16,16,0,0,0,32,80V208a16,16,0,0,0,16,16H176a16,16,0,0,0,16-16V136A8,8,0,0,0,184,128Z"/></symbol>
  <symbol id="ph-duotone-bank" viewBox="0 0 256 256"><path d="M232,96H24L128,32Z" opacity="0.2"/><path d="M24,104H48v64H32a8,8,0,0,0,0,16H224a8,8,0,0,0,0-16H208V104h24a8,8,0,0,0,4.19-14.81l-104-64a8,8,0,0,0-8.38,0l-104,64A8,8,0,0,0,24,104Zm40,0H96v64H64Zm80,0v64H112V104Zm48,64H160V104h32ZM128,41.39,203.74,88H52.26ZM248,208a8,8,0,0,1-8,8H16a8,8,0,0,1,0-16H240A8,8,0,0,1,248,208Z"/></symbol>
  <symbol id="ph-duotone-caret-down" viewBox="0 0 256 256"><path d="M208,96l-80,80L48,96Z" opacity="0.2"/><path d="M215.39,92.94A8,8,0,0,0,208,88H48a8,8,0,0,0-5.66,13.66l80,80a8,8,0,0,0,11.32,0l80-80A8,8,0,0,0,215.39,92.94ZM128,164.69,67.31,104H188.69Z"/></symbol>
  <symbol id="ph-duotone-certificate" viewBox="0 0 256 256"><path d="M224,56V90.06h0a44,44,0,1,0-56,67.88h0V192H40a8,8,0,0,1-8-8V56a8,8,0,0,1,8-8H216A8,8,0,0,1,224,56Z" opacity="0.2"/><path d="M128,136a8,8,0,0,1-8,8H72a8,8,0,0,1,0-16h48A8,8,0,0,1,128,136Zm-8-40H72a8,8,0,0,0,0,16h48a8,8,0,0,0,0-16Zm112,65.47V224A8,8,0,0,1,220,231l-24-13.74L172,231A8,8,0,0,1,160,224V200H40a16,16,0,0,1-16-16V56A16,16,0,0,1,40,40H216a16,16,0,0,1,16,16V86.53a51.88,51.88,0,0,1,0,74.94ZM160,184V161.47A52,52,0,0,1,216,76V56H40V184Zm56-12a51.88,51.88,0,0,1-40,0v38.22l16-9.16a8,8,0,0,1,7.94,0l16,9.16Zm16-48a36,36,0,1,0-36,36A36,36,0,0,0,232,124Z"/></symbol>
  <symbol id="ph-duotone-chat-text" viewBox="0 0 256 256"><path d="M224,64V192a8,8,0,0,1-8,8H80L45.15,230.11A8,8,0,0,1,32,224V64a8,8,0,0,1,8-8H216A8,8,0,0,1,224,64Z" opacity="0.2"/><path d="M216,48H40A16,16,0,0,0,24,64V224a15.85,15.85,0,0,0,9.24,14.5A16.13,16.13,0,0,0,40,240a15.89,15.89,0,0,0,10.25-3.78l.09-.07L83,208H216a16,16,0,0,0,16-16V64A16,16,0,0,0,216,48ZM40,224h0ZM216,192H80a8,8,0,0,0-5.23,1.95L40,224V64H216ZM88,112a8,8,0,0,1,8-8h64a8,8,0,0,1,0,16H96A8,8,0,0,1,88,112Zm0,32a8,8,0,0,1,8-8h64a8,8,0,1,1,0,16H96A8,8,0,0,1,88,144Z"/></symbol>
  <symbol id="ph-duotone-clock" viewBox="0 0 256 256"><path d="M224,128a96,96,0,1,1-96-96A96,96,0,0,1,224,128Z" opacity="0.2"/><path d="M128,24A104,104,0,1,0,232,128,104.11,104.11,0,0,0,128,24Zm0,192a88,88,0,1,1,88-88A88.1,88.1,0,0,1,128,216Zm64-88a8,8,0,0,1-8,8H128a8,8,0,0,1-8-8V72a8,8,0,0,1,16,0v48h48A8,8,0,0,1,192,128Z"/></symbol>
  <symbol id="ph-duotone-compass" viewBox="0 0 256 256"><path d="M128,32a96,96,0,1,0,96,96A96,96,0,0,0,128,32Zm16,112L80,176l32-64,64-32Z" opacity="0.2"/><path d="M128,24A104,104,0,1,0,232,128,104.11,104.11,0,0,0,128,24Zm0,192a88,88,0,1,1,88-88A88.1,88.1,0,0,1,128,216ZM172.42,72.84l-64,32a8.05,8.05,0,0,0-3.58,3.58l-32,64A8,8,0,0,0,80,184a8.1,8.1,0,0,0,3.58-.84l64-32a8.05,8.05,0,0,0,3.58-3.58l32-64a8,8,0,0,0-10.74-10.74ZM138,138,97.89,158.11,118,118l40.15-20.07Z"/></symbol>
  <symbol id="ph-duotone-door-open" viewBox="0 0 256 256"><path d="M200,40V224H168V32h24A8,8,0,0,1,200,40Z" opacity="0.2"/><path d="M232,216H208V40a16,16,0,0,0-16-16H64A16,16,0,0,0,48,40V216H24a8,8,0,0,0,0,16H232a8,8,0,0,0,0-16Zm-40,0H176V40h16ZM64,40h96V216H64Zm80,92a12,12,0,1,1-12-12A12,12,0,0,1,144,132Z"/></symbol>
  <symbol id="ph-duotone-envelope" viewBox="0 0 256 256"><path d="M224,56l-96,88L32,56Z" opacity="0.2"/><path d="M224,48H32a8,8,0,0,0-8,8V192a16,16,0,0,0,16,16H216a16,16,0,0,0,16-16V56A8,8,0,0,0,224,48Zm-96,85.15L52.57,64H203.43ZM98.71,128,40,181.81V74.19Zm11.84,10.85,12,11.05a8,8,0,0,0,10.82,0l12-11.05,58,53.15H52.57ZM157.29,128,216,74.18V181.82Z"/></symbol>
  <symbol id="ph-duotone-factory" viewBox="0 0 256 256"><path d="M216,136v80H40V88l64,48V88l64,48Z" opacity="0.2"/><path d="M116,176a8,8,0,0,1-8,8H80a8,8,0,0,1,0-16h28A8,8,0,0,1,116,176Zm60-8H148a8,8,0,0,0,0,16h28a8,8,0,0,0,0-16Zm64,48a8,8,0,0,1-8,8H24a8,8,0,0,1,0-16h8V88a8,8,0,0,1,12.8-6.4L96,120V88a8,8,0,0,1,12.8-6.4l38.74,29.05L159.1,29.74A16.08,16.08,0,0,1,174.94,16h18.12A16.08,16.08,0,0,1,208.9,29.74l15,105.13s.08.78.08,1.13v72h8A8,8,0,0,1,240,216Zm-77.86-94.4,8.53,6.4h36.11L193.06,32H174.94ZM48,208H208V144H168a8,8,0,0,1-4.8-1.6l-14.4-10.8,0,0L112,104v32a8,8,0,0,1-12.8,6.4L48,104Z"/></symbol>
  <symbol id="ph-duotone-file-text" viewBox="0 0 256 256"><path d="M208,88H152V32Z" opacity="0.2"/><path d="M213.66,82.34l-56-56A8,8,0,0,0,152,24H56A16,16,0,0,0,40,40V216a16,16,0,0,0,16,16H200a16,16,0,0,0,16-16V88A8,8,0,0,0,213.66,82.34ZM160,51.31,188.69,80H160ZM200,216H56V40h88V88a8,8,0,0,0,8,8h48V216Zm-32-80a8,8,0,0,1-8,8H96a8,8,0,0,1,0-16h64A8,8,0,0,1,168,136Zm0,32a8,8,0,0,1-8,8H96a8,8,0,0,1,0-16h64A8,8,0,0,1,168,168Z"/></symbol>
  <symbol id="ph-duotone-globe" viewBox="0 0 256 256"><path d="M224,128a96,96,0,1,1-96-96A96,96,0,0,1,224,128Z" opacity="0.2"/><path d="M128,24h0A104,104,0,1,0,232,128,104.12,104.12,0,0,0,128,24Zm88,104a87.61,87.61,0,0,1-3.33,24H174.16a157.44,157.44,0,0,0,0-48h38.51A87.61,87.61,0,0,1,216,128ZM102,168H154a115.11,115.11,0,0,1-26,45A115.27,115.27,0,0,1,102,168Zm-3.9-16a140.84,140.84,0,0,1,0-48h59.88a140.84,140.84,0,0,1,0,48ZM40,128a87.61,87.61,0,0,1,3.33-24H81.84a157.44,157.44,0,0,0,0,48H43.33A87.61,87.61,0,0,1,40,128ZM154,88H102a115.11,115.11,0,0,1,26-45A115.27,115.27,0,0,1,154,88Zm52.33,0H170.71a135.28,135.28,0,0,0-22.3-45.6A88.29,88.29,0,0,1,206.37,88ZM107.59,42.4A135.28,135.28,0,0,0,85.29,88H49.63A88.29,88.29,0,0,1,107.59,42.4ZM49.63,168H85.29a135.28,135.28,0,0,0,22.3,45.6A88.29,88.29,0,0,1,49.63,168Zm98.78,45.6a135.28,135.28,0,0,0,22.3-45.6h35.66A88.29,88.29,0,0,1,148.41,213.6Z"/></symbol>
  <symbol id="ph-duotone-globe-hemisphere-east" viewBox="0 0 256 256"><path d="M215,168.71a96.42,96.42,0,0,1-30.54,37l-9.36-9.37a8,8,0,0,0-3.63-2.09L150,188.59a8,8,0,0,1-5.88-8.9l2.38-16.2a8,8,0,0,1,4.84-6.22l30.46-12.66a8,8,0,0,1,8.47,1.49ZM159.89,105,182.06,79.2A8,8,0,0,0,184,74V50A96,96,0,0,0,50.49,184.65l9.92-6.52A8,8,0,0,0,64,171.49l.21-36.23a8.06,8.06,0,0,1,1.35-4.41l20.94-31.3a8,8,0,0,1,11.34-2l19.81,13a8.06,8.06,0,0,0,5.77,1.45l31.46-4.26A8,8,0,0,0,159.89,105Z" opacity="0.2"/><path d="M128,24A104,104,0,1,0,232,128,104.11,104.11,0,0,0,128,24Zm0,16a87.5,87.5,0,0,1,48,14.28V74L153.83,99.74,122.36,104l-.31-.22L102.38,90.92A16,16,0,0,0,79.87,95.1L58.93,126.4a16,16,0,0,0-2.7,8.81L56,171.44l-3.27,2.15A88,88,0,0,1,128,40ZM62.29,186.47l2.52-1.65A16,16,0,0,0,72,171.53l.21-36.23L93.17,104a3.62,3.62,0,0,0,.32.22l19.67,12.87a15.94,15.94,0,0,0,11.35,2.77L156,115.59a16,16,0,0,0,10-5.41l22.17-25.76A16,16,0,0,0,192,74V67.67A87.87,87.87,0,0,1,211.77,155l-16.14-14.76a16,16,0,0,0-16.93-3l-30.46,12.65a16.08,16.08,0,0,0-9.68,12.45l-2.39,16.19a16,16,0,0,0,11.77,17.81L169.4,202l2.36,2.37A87.88,87.88,0,0,1,62.29,186.47ZM185,195l-4.3-4.31a16,16,0,0,0-7.26-4.18L152,180.85l2.39-16.19L184.84,152,205,170.48A88.43,88.43,0,0,1,185,195Z"/></symbol>
  <symbol id="ph-duotone-hand-coins" viewBox="0 0 256 256"><path d="M16,152H48v56H16a8,8,0,0,1-8-8V160A8,8,0,0,1,16,152ZM204,56a28,28,0,0,0-12,2.71h0A28,28,0,1,0,176,85.29h0A28,28,0,1,0,204,56Z" opacity="0.2"/><path d="M230.33,141.06a24.43,24.43,0,0,0-21.24-4.23l-41.84,9.62A28,28,0,0,0,140,112H89.94a31.82,31.82,0,0,0-22.63,9.37L44.69,144H16A16,16,0,0,0,0,160v40a16,16,0,0,0,16,16H120a7.93,7.93,0,0,0,1.94-.24l64-16a6.94,6.94,0,0,0,1.19-.4L226,182.82l.44-.2a24.6,24.6,0,0,0,3.93-41.56ZM16,160H40v40H16Zm203.43,8.21-38,16.18L119,200H56V155.31l22.63-22.62A15.86,15.86,0,0,1,89.94,128H140a12,12,0,0,1,0,24H112a8,8,0,0,0,0,16h32a8.32,8.32,0,0,0,1.79-.2l67-15.41.31-.08a8.6,8.6,0,0,1,6.3,15.9ZM164,96a36,36,0,0,0,5.9-.48,36,36,0,1,0,28.22-47A36,36,0,1,0,164,96Zm60-12a20,20,0,1,1-20-20A20,20,0,0,1,224,84ZM164,40a20,20,0,0,1,19.25,14.61,36,36,0,0,0-15,24.93A20.42,20.42,0,0,1,164,80a20,20,0,0,1,0-40Z"/></symbol>
  <symbol id="ph-duotone-handshake" viewBox="0 0 256 256"><path d="M200,152l-40,40L96,176,40,136,72.68,70.63,128,56l55.32,14.63L183.6,72H144L98.34,116.29a8,8,0,0,0,1.38,12.42C117.23,139.9,141,139.13,160,120Z" opacity="0.2"/><path d="M254.3,107.91,228.78,56.85a16,16,0,0,0-21.47-7.15L182.44,62.13,130.05,48.27a8.14,8.14,0,0,0-4.1,0L73.56,62.13,48.69,49.7a16,16,0,0,0-21.47,7.15L1.7,107.9a16,16,0,0,0,7.15,21.47l27,13.51,55.49,39.63a8.06,8.06,0,0,0,2.71,1.25l64,16a8,8,0,0,0,7.6-2.1l55.07-55.08,26.42-13.21a16,16,0,0,0,7.15-21.46Zm-54.89,33.37L165,113.72a8,8,0,0,0-10.68.61C136.51,132.27,116.66,130,104,122L147.24,80h31.81l27.21,54.41ZM41.53,64,62,74.22,36.43,125.27,16,115.06Zm116,119.13L99.42,168.61l-49.2-35.14,28-56L128,64.28l9.8,2.59-45,43.68-.08.09a16,16,0,0,0,2.72,24.81c20.56,13.13,45.37,11,64.91-5L188,152.66Zm62-57.87-25.52-51L214.47,64,240,115.06Zm-87.75,92.67a8,8,0,0,1-7.75,6.06,8.13,8.13,0,0,1-1.95-.24L80.41,213.33a7.89,7.89,0,0,1-2.71-1.25L51.35,193.26a8,8,0,0,1,9.3-13l25.11,17.94L126,208.24A8,8,0,0,1,131.82,217.94Z"/></symbol>
  <symbol id="ph-duotone-hospital" viewBox="0 0 256 256"><path d="M160,48V216H128V160H80v56H48V48a8,8,0,0,1,8-8h96A8,8,0,0,1,160,48Z" opacity="0.2"/><path d="M248,208h-8V128a16,16,0,0,0-16-16H168V48a16,16,0,0,0-16-16H56A16,16,0,0,0,40,48V208H32a8,8,0,0,0,0,16H248a8,8,0,0,0,0-16Zm-24-80v80H168V128ZM56,48h96V208H136V160a8,8,0,0,0-8-8H80a8,8,0,0,0-8,8v48H56Zm64,160H88V168h32ZM72,96a8,8,0,0,1,8-8H96V72a8,8,0,0,1,16,0V88h16a8,8,0,0,1,0,16H112v16a8,8,0,0,1-16,0V104H80A8,8,0,0,1,72,96Z"/></symbol>
  <symbol id="ph-duotone-lock-simple" viewBox="0 0 256 256"><path d="M216,96V208a8,8,0,0,1-8,8H48a8,8,0,0,1-8-8V96a8,8,0,0,1,8-8H208A8,8,0,0,1,216,96Z" opacity="0.2"/><path d="M208,80H176V56a48,48,0,0,0-96,0V80H48A16,16,0,0,0,32,96V208a16,16,0,0,0,16,16H208a16,16,0,0,0,16-16V96A16,16,0,0,0,208,80ZM96,56a32,32,0,0,1,64,0V80H96ZM208,208H48V96H208V208Z"/></symbol>
  <symbol id="ph-duotone-magnifying-glass" viewBox="0 0 256 256"><path d="M192,112a80,80,0,1,1-80-80A80,80,0,0,1,192,112Z" opacity="0.2"/><path d="M229.66,218.34,179.6,168.28a88.21,88.21,0,1,0-11.32,11.31l50.06,50.07a8,8,0,0,0,11.32-11.32ZM40,112a72,72,0,1,1,72,72A72.08,72.08,0,0,1,40,112Z"/></symbol>
  <symbol id="ph-duotone-map-pin-area" viewBox="0 0 256 256"><path d="M184,80c0,56-56,88-56,88S72,136,72,80a56,56,0,0,1,112,0Z" opacity="0.2"/><path d="M112,80a16,16,0,1,1,16,16A16,16,0,0,1,112,80ZM64,80a64,64,0,0,1,128,0c0,59.95-57.58,93.54-60,94.95a8,8,0,0,1-7.94,0C121.58,173.54,64,140,64,80Zm16,0c0,42.2,35.84,70.21,48,78.5,12.15-8.28,48-36.3,48-78.5a48,48,0,0,0-96,0Zm122.77,67.63a8,8,0,0,0-5.54,15C213.74,168.74,224,176.92,224,184c0,13.36-36.52,32-96,32s-96-18.64-96-32c0-7.08,10.26-15.26,26.77-21.36a8,8,0,0,0-5.54-15C29.22,156.49,16,169.41,16,184c0,31.18,57.71,48,112,48s112-16.82,112-48C240,169.41,226.78,156.49,202.77,147.63Z"/></symbol>
  <symbol id="ph-duotone-map-pin-line" viewBox="0 0 256 256"><path d="M128,24a80,80,0,0,0-80,80c0,72,80,128,80,128s80-56,80-128A80,80,0,0,0,128,24Zm0,112a32,32,0,1,1,32-32A32,32,0,0,1,128,136Z" opacity="0.2"/><path d="M200,224H150.54A266.56,266.56,0,0,0,174,200.25c27.45-31.57,42-64.85,42-96.25a88,88,0,0,0-176,0c0,31.4,14.51,64.68,42,96.25A266.56,266.56,0,0,0,105.46,224H56a8,8,0,0,0,0,16H200a8,8,0,0,0,0-16ZM56,104a72,72,0,0,1,144,0c0,57.23-55.47,105-72,118C111.47,209,56,161.23,56,104Zm112,0a40,40,0,1,0-40,40A40,40,0,0,0,168,104Zm-64,0a24,24,0,1,1,24,24A24,24,0,0,1,104,104Z"/></symbol>
  <symbol id="ph-duotone-map-trifold" viewBox="0 0 256 256"><path d="M160,72V216L96,184V40Z" opacity="0.2"/><path d="M228.92,49.69a8,8,0,0,0-6.86-1.45L160.93,63.52,99.58,32.84a8,8,0,0,0-5.52-.6l-64,16A8,8,0,0,0,24,56V200a8,8,0,0,0,9.94,7.76l61.13-15.28,61.35,30.68A8.15,8.15,0,0,0,160,224a8,8,0,0,0,1.94-.24l64-16A8,8,0,0,0,232,200V56A8,8,0,0,0,228.92,49.69ZM104,52.94l48,24V203.06l-48-24ZM40,62.25l48-12v127.5l-48,12Zm176,131.5-48,12V78.25l48-12Z"/></symbol>
  <symbol id="ph-duotone-network" viewBox="0 0 256 256"><path d="M152,40V72a8,8,0,0,1-8,8H112a8,8,0,0,1-8-8V40a8,8,0,0,1,8-8h32A8,8,0,0,1,152,40ZM80,168H48a8,8,0,0,0-8,8v32a8,8,0,0,0,8,8H80a8,8,0,0,0,8-8V176A8,8,0,0,0,80,168Zm128,0H176a8,8,0,0,0-8,8v32a8,8,0,0,0,8,8h32a8,8,0,0,0,8-8V176A8,8,0,0,0,208,168Z" opacity="0.2"/><path d="M232,112H136V88h8a16,16,0,0,0,16-16V40a16,16,0,0,0-16-16H112A16,16,0,0,0,96,40V72a16,16,0,0,0,16,16h8v24H24a8,8,0,0,0,0,16H56v32H48a16,16,0,0,0-16,16v32a16,16,0,0,0,16,16H80a16,16,0,0,0,16-16V176a16,16,0,0,0-16-16H72V128H184v32h-8a16,16,0,0,0-16,16v32a16,16,0,0,0,16,16h32a16,16,0,0,0,16-16V176a16,16,0,0,0-16-16h-8V128h32a8,8,0,0,0,0-16ZM112,40h32V72H112ZM80,208H48V176H80Zm128,0H176V176h32Z"/></symbol>
  <symbol id="ph-duotone-paper-plane-tilt" viewBox="0 0 256 256"><path d="M223.69,42.18l-58.22,192a8,8,0,0,1-14.92,1.25L108,148,20.58,105.45a8,8,0,0,1,1.25-14.92l192-58.22A8,8,0,0,1,223.69,42.18Z" opacity="0.2"/><path d="M227.32,28.68a16,16,0,0,0-15.66-4.08l-.15,0L19.57,82.84a16,16,0,0,0-2.49,29.8L102,154l41.3,84.87A15.86,15.86,0,0,0,157.74,248q.69,0,1.38-.06a15.88,15.88,0,0,0,14-11.51l58.2-191.94c0-.05,0-.1,0-.15A16,16,0,0,0,227.32,28.68ZM157.83,231.85l-.05.14,0-.07-40.06-82.3,48-48a8,8,0,0,0-11.31-11.31l-48,48L24.08,98.25l-.07,0,.14,0L216,40Z"/></symbol>
  <symbol id="ph-duotone-plus" viewBox="0 0 256 256"><path d="M216,56V200a16,16,0,0,1-16,16H56a16,16,0,0,1-16-16V56A16,16,0,0,1,56,40H200A16,16,0,0,1,216,56Z" opacity="0.2"/><path d="M224,128a8,8,0,0,1-8,8H136v80a8,8,0,0,1-16,0V136H40a8,8,0,0,1,0-16h80V40a8,8,0,0,1,16,0v80h80A8,8,0,0,1,224,128Z"/></symbol>
  <symbol id="ph-duotone-seal-check" viewBox="0 0 256 256"><path d="M232,128c0,12.51-17.82,21.95-22.68,33.69-4.68,11.32,1.42,30.65-7.78,39.85s-28.53,3.1-39.85,7.78C150,214.18,140.5,232,128,232s-22-17.82-33.69-22.68c-11.32-4.68-30.65,1.42-39.85-7.78s-3.1-28.53-7.78-39.85C41.82,150,24,140.5,24,128s17.82-22,22.68-33.69C51.36,83,45.26,63.66,54.46,54.46S83,51.36,94.31,46.68C106.05,41.82,115.5,24,128,24S150,41.82,161.69,46.68c11.32,4.68,30.65-1.42,39.85,7.78s3.1,28.53,7.78,39.85C214.18,106.05,232,115.5,232,128Z" opacity="0.2"/><path d="M225.86,102.82c-3.77-3.94-7.67-8-9.14-11.57-1.36-3.27-1.44-8.69-1.52-13.94-.15-9.76-.31-20.82-8-28.51s-18.75-7.85-28.51-8c-5.25-.08-10.67-.16-13.94-1.52-3.56-1.47-7.63-5.37-11.57-9.14C146.28,23.51,138.44,16,128,16s-18.27,7.51-25.18,14.14c-3.94,3.77-8,7.67-11.57,9.14C88,40.64,82.56,40.72,77.31,40.8c-9.76.15-20.82.31-28.51,8S41,67.55,40.8,77.31c-.08,5.25-.16,10.67-1.52,13.94-1.47,3.56-5.37,7.63-9.14,11.57C23.51,109.72,16,117.56,16,128s7.51,18.27,14.14,25.18c3.77,3.94,7.67,8,9.14,11.57,1.36,3.27,1.44,8.69,1.52,13.94.15,9.76.31,20.82,8,28.51s18.75,7.85,28.51,8c5.25.08,10.67.16,13.94,1.52,3.56,1.47,7.63,5.37,11.57,9.14C109.72,232.49,117.56,240,128,240s18.27-7.51,25.18-14.14c3.94-3.77,8-7.67,11.57-9.14,3.27-1.36,8.69-1.44,13.94-1.52,9.76-.15,20.82-.31,28.51-8s7.85-18.75,8-28.51c.08-5.25.16-10.67,1.52-13.94,1.47-3.56,5.37-7.63,9.14-11.57C232.49,146.28,240,138.44,240,128S232.49,109.73,225.86,102.82Zm-11.55,39.29c-4.79,5-9.75,10.17-12.38,16.52-2.52,6.1-2.63,13.07-2.73,19.82-.1,7-.21,14.33-3.32,17.43s-10.39,3.22-17.43,3.32c-6.75.1-13.72.21-19.82,2.73-6.35,2.63-11.52,7.59-16.52,12.38S132,224,128,224s-9.15-4.92-14.11-9.69-10.17-9.75-16.52-12.38c-6.1-2.52-13.07-2.63-19.82-2.73-7-.1-14.33-.21-17.43-3.32s-3.22-10.39-3.32-17.43c-.1-6.75-.21-13.72-2.73-19.82-2.63-6.35-7.59-11.52-12.38-16.52S32,132,32,128s4.92-9.15,9.69-14.11,9.75-10.17,12.38-16.52c2.52-6.1,2.63-13.07,2.73-19.82.1-7,.21-14.33,3.32-17.43S70.51,56.9,77.55,56.8c6.75-.1,13.72-.21,19.82-2.73,6.35-2.63,11.52-7.59,16.52-12.38S124,32,128,32s9.15,4.92,14.11,9.69,10.17,9.75,16.52,12.38c6.1,2.52,13.07,2.63,19.82,2.73,7,.1,14.33.21,17.43,3.32s3.22,10.39,3.32,17.43c.1,6.75.21,13.72,2.73,19.82,2.63,6.35,7.59,11.52,12.38,16.52S224,124,224,128,219.08,137.15,214.31,142.11ZM173.66,98.34a8,8,0,0,1,0,11.32l-56,56a8,8,0,0,1-11.32,0l-24-24a8,8,0,0,1,11.32-11.32L112,148.69l50.34-50.35A8,8,0,0,1,173.66,98.34Z"/></symbol>
  <symbol id="ph-duotone-shield-check" viewBox="0 0 256 256"><path d="M216,56v56c0,96-88,120-88,120S40,208,40,112V56a8,8,0,0,1,8-8H208A8,8,0,0,1,216,56Z" opacity="0.2"/><path d="M208,40H48A16,16,0,0,0,32,56v56c0,52.72,25.52,84.67,46.93,102.19,23.06,18.86,46,25.26,47,25.53a8,8,0,0,0,4.2,0c1-.27,23.91-6.67,47-25.53C198.48,196.67,224,164.72,224,112V56A16,16,0,0,0,208,40Zm0,72c0,37.07-13.66,67.16-40.6,89.42A129.3,129.3,0,0,1,128,223.62a128.25,128.25,0,0,1-38.92-21.81C61.82,179.51,48,149.3,48,112l0-56,160,0ZM82.34,141.66a8,8,0,0,1,11.32-11.32L112,148.69l50.34-50.35a8,8,0,0,1,11.32,11.32l-56,56a8,8,0,0,1-11.32,0Z"/></symbol>
  <symbol id="ph-duotone-sliders-horizontal" viewBox="0 0 256 256"><path d="M128,80a24,24,0,1,1-24-24A24,24,0,0,1,128,80Zm40,72a24,24,0,1,0,24,24A24,24,0,0,0,168,152Z" opacity="0.2"/><path d="M40,88H73a32,32,0,0,0,62,0h81a8,8,0,0,0,0-16H135a32,32,0,0,0-62,0H40a8,8,0,0,0,0,16Zm64-24A16,16,0,1,1,88,80,16,16,0,0,1,104,64ZM216,168H199a32,32,0,0,0-62,0H40a8,8,0,0,0,0,16h97a32,32,0,0,0,62,0h17a8,8,0,0,0,0-16Zm-48,24a16,16,0,1,1,16-16A16,16,0,0,1,168,192Z"/></symbol>
  <symbol id="ph-duotone-strategy" viewBox="0 0 256 256"><path d="M104,188a28,28,0,1,1-28-28A28,28,0,0,1,104,188Z" opacity="0.2"/><path d="M76,152a36,36,0,1,0,36,36A36,36,0,0,0,76,152Zm0,56a20,20,0,1,1,20-20A20,20,0,0,1,76,208ZM42.34,106.34,56.69,92,42.34,77.66A8,8,0,0,1,53.66,66.34L68,80.69,82.34,66.34A8,8,0,0,1,93.66,77.66L79.31,92l14.35,14.34a8,8,0,0,1-11.32,11.32L68,103.31,53.66,117.66a8,8,0,0,1-11.32-11.32Zm187.32,96a8,8,0,0,1-11.32,11.32L204,199.31l-14.34,14.35a8,8,0,0,1-11.32-11.32L192.69,188l-14.35-14.34a8,8,0,0,1,11.32-11.32L204,176.69l14.34-14.35a8,8,0,0,1,11.32,11.32L215.31,188Zm-45.19-89.51c-6.18,22.33-25.32,41.63-46.53,46.93A8.13,8.13,0,0,1,136,160a8,8,0,0,1-1.93-15.76c15.63-3.91,30.35-18.91,35-35.68,3.19-11.5,3.22-29-14.71-46.9L152,59.31V80a8,8,0,0,1-16,0V40a8,8,0,0,1,8-8h40a8,8,0,0,1,0,16H163.31l2.35,2.34C183.9,68.59,190.58,90.78,184.47,112.83Z"/></symbol>
  <symbol id="ph-duotone-trend-up" viewBox="0 0 256 256"><path d="M232,56v64L168,56Z" opacity="0.2"/><path d="M232,48H168a8,8,0,0,0-5.66,13.66L188.69,88,136,140.69l-34.34-34.35a8,8,0,0,0-11.32,0l-72,72a8,8,0,0,0,11.32,11.32L96,123.31l34.34,34.35a8,8,0,0,0,11.32,0L200,99.31l26.34,26.35A8,8,0,0,0,240,120V56A8,8,0,0,0,232,48Zm-8,52.69L187.31,64H224Z"/></symbol>
  <symbol id="ph-duotone-x" viewBox="0 0 256 256"><path d="M216,56V200a16,16,0,0,1-16,16H56a16,16,0,0,1-16-16V56A16,16,0,0,1,56,40H200A16,16,0,0,1,216,56Z" opacity="0.2"/><path d="M205.66,194.34a8,8,0,0,1-11.32,11.32L128,139.31,61.66,205.66a8,8,0,0,1-11.32-11.32L116.69,128,50.34,61.66A8,8,0,0,1,61.66,50.34L128,116.69l66.34-66.35a8,8,0,0,1,11.32,11.32L139.31,128Z"/></symbol>
</svg>
